<?xml version="1.0" standalone="no"?>
<!DOCTYPE svg PUBLIC "-//W3C//DTD SVG 20010904//EN"
 "http://www.w3.org/TR/2001/REC-SVG-20010904/DTD/svg10.dtd">
<svg version="1.0" xmlns="http://www.w3.org/2000/svg"
 width="2000.000000pt" height="2000.000000pt" viewBox="0 0 2000.000000 2000.000000"
 preserveAspectRatio="xMidYMid meet">

<g transform="translate(0.000000,2000.000000) scale(0.100000,-0.100000)"
fill="#000000" stroke="none">
<path d="M7835 13694 c-534 -53 -905 -152 -1330 -353 -992 -471 -1738 -1386
-1999 -2451 -35 -143 -62 -293 -88 -480 -17 -129 -17 -670 0 -810 91 -736 352
-1363 796 -1917 542 -675 1311 -1143 2157 -1313 402 -80 875 -91 1282 -30 561
85 1088 295 1554 617 91 63 93 64 101 41 5 -13 53 -152 107 -311 l97 -287
1330 2 1330 3 423 1215 c1185 3408 1685 4846 1755 5050 43 124 99 282 124 353
l45 127 -1156 -2 -1155 -3 -682 -2172 c-374 -1195 -683 -2173 -686 -2173 -3 0
-36 90 -74 200 l-69 200 -1096 0 -1096 0 -24 -43 c-246 -441 -662 -751 -1152
-861 -941 -210 -1872 382 -2083 1325 -138 618 69 1258 544 1684 343 308 822
472 1274 436 75 -6 182 -20 238 -31 494 -100 929 -420 1179 -867 l24 -43 1107
0 1107 0 -30 113 c-177 666 -491 1217 -964 1693 -417 419 -888 714 -1439 899
-251 85 -451 131 -736 170 -110 16 -617 29 -715 19z m665 -114 c1044 -128
1934 -654 2538 -1500 235 -329 415 -707 536 -1127 l15 -53 -1012 0 -1012 1
-73 112 c-409 631 -1172 948 -1917 796 -379 -77 -757 -296 -1011 -587 -438
-500 -575 -1189 -363 -1816 101 -299 294 -588 527 -792 633 -553 1553 -615
2247 -149 216 145 380 310 517 522 l73 112 1030 0 1030 1 104 -303 c57 -166
107 -308 111 -316 5 -8 14 10 27 50 11 35 334 1066 718 2292 l699 2227 1043 0
c574 0 1043 -3 1043 -8 0 -4 -417 -1204 -926 -2667 -509 -1463 -1020 -2933
-1136 -3267 l-212 -608 -1255 0 -1256 0 -114 340 c-63 187 -118 340 -123 340
-5 0 -44 -26 -86 -58 -507 -385 -1104 -622 -1777 -704 -135 -17 -631 -17 -765
0 -596 73 -1122 260 -1585 565 -706 464 -1209 1127 -1470 1937 -113 351 -160
669 -160 1080 0 279 7 375 46 605 89 532 312 1064 627 1500 220 303 514 597
817 817 497 360 1118 597 1720 657 61 6 126 13 145 15 64 7 554 -3 640 -14z"/>
</g>
</svg>
